<svg width="320" height="294" viewBox="0 0 320 294" fill="none" xmlns="http://www.w3.org/2000/svg">
<path d="M159.312 233.935C213.805 233.935 258.207 189.717 258.207 135.407C258.024 80.9134 213.805 36.6948 159.312 36.6948C104.635 36.6948 60.416 80.9134 60.416 135.223C60.416 189.717 104.635 233.935 159.312 233.935Z" fill="#F6F4F0"/>
<g filter="url(#filter0_d_10802_21149)">
<path d="M264.813 147.883C264.813 168.983 247.75 186.047 226.466 186.047C226.099 186.047 222.98 186.047 200.045 186.047C184.082 186.047 158.579 186.047 117.846 186.047H98.3972C72.8936 186.597 52.5273 166.231 52.5273 141.644C52.5273 116.875 73.0771 96.325 98.9477 97.6094C121.149 28.2541 222.796 37.9785 231.42 109.719C250.502 112.104 264.813 128.25 264.813 147.883Z" fill="url(#paint0_linear_10802_21149)"/>
</g>
<path d="M226.466 186.047C247.567 186.047 264.814 168.983 264.814 147.883C264.814 126.783 247.567 109.719 226.466 109.719C205.366 109.719 188.119 126.783 188.119 147.883C188.119 168.983 205.366 186.047 226.466 186.047Z" fill="url(#paint1_linear_10802_21149)"/>
<path d="M163.903 186.415C201.516 186.415 232.157 155.957 232.157 118.344C232.157 80.7306 201.516 50.2729 163.903 50.2729C126.29 50.2729 95.6484 80.7306 95.6484 118.344C95.6484 155.957 126.106 186.415 163.903 186.415Z" fill="url(#paint2_linear_10802_21149)"/>
<path d="M138.654 135.81C141.543 135.81 143.988 133.365 143.988 130.476C143.988 127.587 141.543 125.142 138.654 125.142C135.765 125.142 133.32 127.587 133.32 130.476C133.32 133.365 135.765 135.81 138.654 135.81Z" fill="#A68F69"/>
<path d="M179.549 135.81C182.438 135.81 184.882 133.365 184.882 130.476C184.882 127.587 182.438 125.142 179.549 125.142C176.659 125.142 174.215 127.587 174.215 130.476C174.215 133.587 176.659 135.81 179.549 135.81Z" fill="#A68F69"/>
<path d="M138.444 112.829L126.711 119.165L128.295 122.098L140.028 115.763L138.444 112.829Z" fill="#A68F69"/>
<path d="M178.824 112.744L177.24 115.678L188.975 122.012L190.558 119.078L178.824 112.744Z" fill="#A68F69"/>
<path d="M159.094 148.255C162.531 148.255 165.317 146.166 165.317 143.588C165.317 141.01 162.531 138.921 159.094 138.921C155.657 138.921 152.871 141.01 152.871 143.588C152.871 146.166 155.657 148.255 159.094 148.255Z" fill="#A68F69"/>
<path d="M31.3541 63.0347C31.3541 63.0347 5.70634 69.5465 13.4784 74.7561C21.2505 79.7051 39.6443 88.3008 57.0019 82.5703C74.3595 76.8399 57.0019 68.7651 57.261 68.7651C57.52 68.7651 31.3541 63.0347 31.3541 63.0347Z" fill="#D4CAB4"/>
<path d="M0 60.9502C9.32647 63.8154 38.0831 59.1269 56.4769 47.145C70.9848 65.1178 76.4252 69.8064 81.6066 70.3273C73.5755 78.402 46.8914 91.4258 31.8654 74.4949C14.2488 85.6954 0 60.9502 0 60.9502Z" fill="#F6F4F0"/>
<path d="M238.652 126.08C248.497 126.601 275.181 114.619 289.689 98.4692C308.342 112.274 314.559 115.4 320 114.619C314.041 124.517 295.906 146.136 270.259 147.699C251.606 136.759 238.652 126.08 238.652 126.08Z" fill="#F6F4F0"/>
<path d="M160.064 248.261C158.117 238.597 139.866 215.738 120.611 205.71C129.335 184.207 130.813 177.406 128.701 172.332C139.772 175.637 165.227 187.815 173.129 212.265C167.181 233.055 160.064 248.261 160.064 248.261Z" fill="white"/>
<defs>
<filter id="filter0_d_10802_21149" x="30.5273" y="39.4375" width="256.285" height="179.62" filterUnits="userSpaceOnUse" color-interpolation-filters="sRGB">
<feFlood flood-opacity="0" result="BackgroundImageFix"/>
<feColorMatrix in="SourceAlpha" type="matrix" values="0 0 0 0 0 0 0 0 0 0 0 0 0 0 0 0 0 0 127 0" result="hardAlpha"/>
<feOffset dy="11"/>
<feGaussianBlur stdDeviation="11"/>
<feColorMatrix type="matrix" values="0 0 0 0 0.397708 0 0 0 0 0.47749 0 0 0 0 0.575 0 0 0 0.27 0"/>
<feBlend mode="normal" in2="BackgroundImageFix" result="effect1_dropShadow_10802_21149"/>
<feBlend mode="normal" in="SourceGraphic" in2="effect1_dropShadow_10802_21149" result="shape"/>
</filter>
<linearGradient id="paint0_linear_10802_21149" x1="158.67" y1="106.481" x2="158.601" y2="187.52" gradientUnits="userSpaceOnUse">
<stop stop-color="white"/>
<stop offset="0.9964" stop-color="#E8E4D9"/>
</linearGradient>
<linearGradient id="paint1_linear_10802_21149" x1="184.038" y1="101.503" x2="218.033" y2="138.682" gradientUnits="userSpaceOnUse">
<stop stop-color="#D4CAB4"/>
<stop offset="0.9942" stop-color="white" stop-opacity="0"/>
</linearGradient>
<linearGradient id="paint2_linear_10802_21149" x1="89.2571" y1="87.1079" x2="142.835" y2="108.075" gradientUnits="userSpaceOnUse">
<stop stop-color="#F6F4F0"/>
<stop offset="0.9942" stop-color="white" stop-opacity="0"/>
</linearGradient>
</defs>
</svg>
