<svg width="19" height="29" viewBox="0 0 19 29" fill="none" xmlns="http://www.w3.org/2000/svg">
<path d="M1.62776 18.6324L1.0193 24.2141C0.906006 25.2534 1.27636 26.2872 2.02388 27.0182L2.40181 27.3878C2.73862 27.7171 3.18204 27.9153 3.65208 27.9464C4.16931 27.9808 4.67932 27.8104 5.07207 27.4721L9.43825 23.711C10.137 23.1091 10.9157 22.6067 11.7522 22.2182L13.2746 21.5111C14.0392 21.1559 14.7026 20.6147 15.2042 19.937C15.4973 19.5409 15.7309 19.1039 15.8973 18.6401L16.2788 17.577C16.5145 16.9199 16.6809 16.24 16.775 15.5482L17.6115 9.40209C17.7583 8.32401 17.4908 7.23039 16.863 6.34174L15.9887 5.10405C15.7062 4.70423 15.6421 4.18978 15.8178 3.73287C15.9857 3.29604 15.9349 2.80527 15.6809 2.41214L15.4257 2.01694C15.0162 1.38294 14.313 1 13.5583 1C12.997 1 12.4564 1.21232 12.0452 1.59434L11.5739 2.0322C11.1244 2.44971 10.9943 3.10879 11.2513 3.66581C11.3976 3.98306 11.4218 4.34316 11.319 4.6771L10.9838 5.76715C10.8754 6.11973 10.723 6.45727 10.5303 6.77183L8.01633 10.8766C7.4766 11.7578 6.79444 12.5434 5.99762 13.2013L3.77647 15.0355C3.43915 15.314 3.216 15.7069 3.14951 16.1392C3.07536 16.6214 2.80125 17.0561 2.40096 17.335C1.97041 17.6349 1.68463 18.1107 1.62776 18.6324Z" fill="black" fill-opacity="0.15" stroke="#FAFAFA" stroke-width="2"/>
</svg>
