<svg width="120" height="43" viewBox="0 0 120 43" fill="none" xmlns="http://www.w3.org/2000/svg">
<path d="M19.8947 0C25.4013 0.0216298 31.0855 1.4492 36.9276 4.30433L37.2039 4.4341L37.3026 4.73692V4.75855C37.7763 6.33752 38.1908 7.9165 38.5263 9.49547C38.8618 11.0744 39.1382 12.6534 39.3355 14.2324C39.6118 16.3089 39.7697 18.3637 39.8092 20.4401V22.8627C39.6908 28.0971 38.8618 33.3315 37.3026 38.5659L37.2039 38.8687L36.9276 38.9985C31.4013 41.6806 25.8553 43 20.3289 43C20.1908 43 20.0526 43 19.8947 43V41.5292C20.0526 41.5292 20.1908 41.5292 20.3289 41.5292C25.5789 41.5292 30.8487 40.2963 36.1184 37.7872C38.4079 30.0005 39.0395 22.2138 38.0132 14.4271C37.8158 12.913 37.5395 11.3556 37.2039 9.81992C36.9079 8.39235 36.5329 6.94316 36.1184 5.51559C30.5329 2.8335 25.125 1.49245 19.8947 1.47082V0ZM3.69079 4.32596C8.86184 1.42757 14.2303 0 19.7763 0C19.8158 0 19.8553 0 19.8947 0V1.47082C19.8553 1.47082 19.8158 1.47082 19.7763 1.47082C14.5066 1.47082 9.43421 2.81187 4.51974 5.51559C2.52632 10.7067 1.40132 15.9844 1.34211 21.3702C1.26316 26.7128 2.26974 32.1851 4.5 37.7656C9.63158 40.2098 14.7632 41.4643 19.8947 41.5292V43C14.5066 42.9351 9.11842 41.6157 3.73026 38.9985L3.375 38.6308C1.08553 33.007 0.0197368 27.4698 0 22.0407V21.6514C0 21.5433 0 21.4567 0 21.3486C0.0592105 15.7032 1.26316 10.1444 3.375 4.69366L3.69079 4.32596Z" fill="#003399"/>
<path fill-rule="evenodd" clip-rule="evenodd" d="M20.2475 33.5047C19.9712 29.3734 20.1489 25.0691 19.0239 21.1324C17.9778 17.4554 14.0107 15.3573 13.9317 11.3125C13.8528 8.15457 16.0436 4.49914 20.1489 4.49914C23.9975 4.47751 26.3857 7.54894 26.662 10.9664C26.9975 14.9247 22.616 17.5852 21.4712 21.3487C20.287 25.1988 20.6225 29.4599 20.2475 33.5047Z" fill="#003399"/>
<path fill-rule="evenodd" clip-rule="evenodd" d="M21.7668 32.5092C21.6089 28.9186 21.6089 25.4795 22.5168 22.4297C23.5233 18.9689 25.6154 16.0489 28.8128 15.0972C31.0036 14.4483 34.2207 17.2602 33.7076 20.1369C33.2733 22.4513 31.1615 25.1767 27.7668 25.4795C26.1878 25.6309 25.5168 27.0152 24.5299 27.8155C28.951 27.3396 31.8128 25.4362 33.8062 23.4463C34.1023 25.1334 34.2997 27.9669 33.0957 28.9402C30.7273 30.7788 28.5365 29.2863 25.7536 30.1515C24.1944 30.649 23.2273 31.7305 21.7668 32.5092Z" fill="#003399"/>
<path fill-rule="evenodd" clip-rule="evenodd" d="M18.7522 32.5092C18.9298 28.9186 18.9101 25.4795 18.0219 22.4297C17.0153 18.9689 14.9232 16.0489 11.7259 15.0972C9.53506 14.4483 6.29822 17.2602 6.83111 20.1369C7.26532 22.4513 9.37717 25.1767 12.7719 25.4795C14.3311 25.6309 15.0219 27.0152 16.0087 27.8155C11.568 27.3396 8.72585 25.4362 6.73243 23.4463C6.43638 25.1334 6.23901 27.9669 7.44296 28.9402C9.81138 30.7788 12.0022 29.2863 14.7851 30.1515C16.3443 30.649 17.2916 31.7305 18.7522 32.5092Z" fill="#003399"/>
<path fill-rule="evenodd" clip-rule="evenodd" d="M29.2718 37.8524V37.2684L29.6665 37.1602L29.2718 36.5113V35.4298L31.0481 38.1336L30.4165 38.3066L29.9823 37.6361L29.2718 37.8524ZM29.2718 35.4298V36.5113L28.9955 36.0787L28.8771 37.3765L29.2718 37.2684V37.8524L28.8179 37.9605L28.7389 38.7608L28.1073 38.9339L28.5218 35.4082L29.1534 35.2352L29.2718 35.4298ZM23.3902 39.7342V39.1718H23.5284C23.7455 39.1502 23.8837 39.1285 23.9429 39.1069C24.0218 39.0853 24.1008 39.0204 24.1402 38.9555C24.1994 38.869 24.2192 38.7825 24.2192 38.6743C24.1994 38.5662 24.1797 38.4797 24.1205 38.4148C24.081 38.3499 24.0021 38.3066 23.9231 38.285C23.8442 38.2634 23.6665 38.2634 23.3902 38.285V37.7226C23.5481 37.7226 23.6468 37.701 23.6863 37.701C23.785 37.6793 23.8639 37.6145 23.9231 37.5496C23.9823 37.4847 24.0021 37.3982 23.9823 37.29C23.9823 37.1819 23.9429 37.0953 23.8837 37.0521C23.8442 36.9872 23.7652 36.9439 23.6468 36.9439C23.6073 36.9439 23.5284 36.9439 23.3902 36.9656V36.4032C23.6073 36.3816 23.7652 36.3816 23.8639 36.4032C23.9823 36.4032 24.1008 36.4465 24.1994 36.5113C24.2981 36.5546 24.3771 36.6411 24.456 36.7493C24.5152 36.8574 24.5547 36.9872 24.5744 37.1386C24.5942 37.29 24.5547 37.4414 24.4955 37.5712C24.4363 37.701 24.3376 37.8091 24.1994 37.8956C24.3968 37.9389 24.5547 38.0254 24.6534 38.1552C24.7718 38.285 24.831 38.4364 24.8508 38.6311C24.8508 38.7825 24.831 38.9339 24.7915 39.0853C24.7323 39.2367 24.6534 39.3448 24.5547 39.453C24.4363 39.5395 24.3179 39.6044 24.16 39.6477C24.0613 39.6693 23.8047 39.6909 23.4297 39.7342H23.3902ZM27.1205 37.9173L27.7323 38.0038C27.6929 38.3715 27.5942 38.6743 27.4165 38.8906C27.2389 39.0853 26.9823 39.2367 26.6665 39.3016C26.2718 39.3665 25.9165 39.28 25.6205 39.042C25.3047 38.7825 25.1271 38.4148 25.0284 37.8956C24.9494 37.3549 25.0087 36.9007 25.2258 36.5546C25.4231 36.2085 25.7389 35.9922 26.1534 35.9057C26.5284 35.8408 26.8244 35.9057 27.1008 36.1004C27.2587 36.2085 27.3968 36.3816 27.4955 36.6411L26.9231 36.9007C26.8639 36.7493 26.7652 36.6195 26.6468 36.5546C26.5087 36.4681 26.3705 36.4465 26.2126 36.4681C25.9955 36.5113 25.8376 36.6411 25.7192 36.8358C25.6008 37.0521 25.581 37.3333 25.6402 37.7226C25.7192 38.1336 25.8376 38.4148 25.9955 38.5662C26.1534 38.7176 26.3508 38.7825 26.5679 38.7392C26.7258 38.6959 26.8442 38.6094 26.9429 38.4797C27.0415 38.3499 27.1008 38.1552 27.1205 37.9173ZM23.3902 36.4032V36.9656C23.3113 36.9656 23.2323 36.9872 23.1337 36.9872L22.7784 37.0305L22.8376 37.7875L23.2521 37.7442C23.2915 37.7442 23.3508 37.7442 23.3902 37.7226V38.285C23.3902 38.285 23.3902 38.285 23.3705 38.285L22.8968 38.3282L22.956 39.2151L23.3902 39.1718V39.7342L22.4034 39.8423L22.1271 36.533L23.331 36.4248C23.3508 36.4032 23.3705 36.4032 23.3902 36.4032ZM19.581 38.5878V38.0254C19.7192 38.0254 19.7981 38.0038 19.8573 37.9822C19.9363 37.9605 19.9955 37.8956 20.0547 37.8308C20.0942 37.7442 20.1139 37.6577 20.1139 37.5712C20.1337 37.4414 20.0942 37.3549 20.035 37.2684C19.9758 37.1819 19.8968 37.1386 19.7981 37.117C19.7389 37.117 19.6797 37.0953 19.581 37.0953V36.533C19.8771 36.533 20.0547 36.5546 20.1534 36.5979C20.331 36.6411 20.4692 36.7493 20.5876 36.9223C20.706 37.0953 20.7652 37.3116 20.7455 37.5712C20.7455 37.7659 20.706 37.9389 20.6468 38.0903C20.5679 38.2201 20.4889 38.3282 20.3902 38.4148C20.2718 38.4797 20.1731 38.5229 20.0547 38.5662C19.9363 38.5878 19.7784 38.5878 19.581 38.5878ZM19.581 36.533V37.0953C19.5218 37.0953 19.4429 37.0953 19.3442 37.0953L19.0481 37.0737V38.0254H19.3639C19.4429 38.0254 19.5218 38.0254 19.581 38.0254V38.5878C19.5416 38.5878 19.4823 38.5878 19.4231 38.5878H19.0284L19.0087 39.8423L18.3968 39.8207L18.456 36.5113L19.4231 36.533C19.4823 36.533 19.5416 36.533 19.581 36.533ZM13.8771 38.2634V37.2468C14.0547 37.29 14.1731 37.29 14.2323 37.29C14.3113 37.2684 14.3705 37.2468 14.4297 37.1819C14.4692 37.117 14.5087 37.0521 14.5284 36.9439C14.5481 36.8358 14.5284 36.7493 14.4889 36.6627C14.4494 36.5762 14.3705 36.533 14.2718 36.4897C14.2323 36.4681 14.0942 36.4465 13.8771 36.4032V35.8408L14.1337 35.8841C14.4494 35.949 14.6666 36.0139 14.8047 36.1004C14.9429 36.1869 15.0416 36.3167 15.1008 36.4897C15.16 36.6411 15.1797 36.8358 15.1402 37.0305C15.1008 37.2684 15.0021 37.4631 14.8442 37.5928C14.706 37.7226 14.4889 37.7875 14.2126 37.7875C14.331 37.8956 14.4297 38.0038 14.4889 38.1119C14.5679 38.2417 14.6468 38.4364 14.7455 38.7176L15.0021 39.4314L14.2916 39.28L13.9758 38.4797C13.9363 38.4148 13.9166 38.3282 13.8771 38.2634ZM15.6139 36.2085L16.206 36.2734L16.0679 38.0687C16.0481 38.3499 16.0481 38.5445 16.0481 38.6094C16.0679 38.7608 16.1271 38.869 16.206 38.9555C16.3047 39.0637 16.4231 39.1069 16.6008 39.1285C16.7784 39.1502 16.9166 39.1069 16.9955 39.042C17.0942 38.9771 17.1534 38.8906 17.1929 38.7825C17.2126 38.6743 17.2323 38.4797 17.2521 38.2201L17.3902 36.3816L18.0021 36.4465L17.8639 38.1768C17.8442 38.5878 17.8047 38.869 17.7455 39.0204C17.706 39.1718 17.6271 39.3232 17.5481 39.4097C17.4494 39.5179 17.3113 39.6044 17.1534 39.6477C17.0152 39.7125 16.8179 39.7125 16.581 39.6909C16.285 39.6693 16.0679 39.6044 15.9297 39.5179C15.7916 39.4314 15.6731 39.3232 15.5942 39.2151C15.5152 39.0853 15.4758 38.9555 15.456 38.8257C15.4363 38.6311 15.4363 38.3499 15.456 37.9822L15.6139 36.2085ZM10.8179 37.1819L10.9363 36.6411L12.2192 37.0088L11.9034 38.285C11.7455 38.3931 11.5481 38.458 11.2718 38.4797C11.0152 38.5013 10.7784 38.4797 10.5416 38.4148C10.2258 38.3282 9.96919 38.1768 9.79155 37.9822C9.59419 37.7659 9.47576 37.5063 9.41655 37.2251C9.37708 36.9223 9.37708 36.6195 9.45603 36.3167C9.53497 35.9922 9.67313 35.711 9.8705 35.4731C10.0481 35.2568 10.285 35.127 10.5613 35.0621C10.7784 34.9973 11.035 35.0189 11.3113 35.1054C11.6666 35.2136 11.9429 35.365 12.1008 35.6029C12.2587 35.8192 12.3376 36.1004 12.3179 36.4032L11.706 36.3599C11.706 36.1869 11.6666 36.0355 11.5679 35.9057C11.4692 35.7976 11.3508 35.6894 11.1731 35.6461C10.9166 35.5813 10.6994 35.6029 10.5021 35.7327C10.3047 35.8624 10.1666 36.122 10.0679 36.4681C9.96918 36.8574 9.98892 37.1602 10.0876 37.3982C10.206 37.6361 10.3837 37.7875 10.6205 37.8524C10.7587 37.8956 10.8771 37.8956 11.0152 37.8956C11.1534 37.874 11.2718 37.8308 11.3902 37.7875L11.4889 37.3765L10.8179 37.1819ZM13.8771 35.8408L12.8508 35.6461L12.3376 38.9122L12.9297 39.0204L13.1468 37.6577L13.285 37.6794C13.4231 37.701 13.5218 37.7442 13.581 37.7659C13.6402 37.8091 13.6797 37.874 13.7389 37.9389C13.7587 38.0038 13.8179 38.1119 13.8771 38.2634V37.2468C13.8179 37.2468 13.7587 37.2251 13.6797 37.2251L13.2455 37.1386L13.3639 36.3167L13.8376 36.4032C13.8573 36.4032 13.8771 36.4032 13.8771 36.4032V35.8408Z" fill="#003399"/>
<path fill-rule="evenodd" clip-rule="evenodd" d="M107.941 31.7962V25.6966H110.388V14.9682L107.941 20.3324V6.94354H117.553L120 37.7876H110.388V31.7962H107.941ZM107.941 6.94354V20.3324L105.493 25.6966H107.941V31.7962H103.322L101.428 37.4632H95.4671V30.4119L102.118 14.687H100.757L104.546 6.94354H107.941ZM95.4671 17.2177L98.4474 9.47423L95.4671 7.65733V17.2177ZM71.7632 14.2544C71.9013 13.3676 71.9013 12.5024 71.7632 11.6805V14.2544ZM95.4671 7.65733V17.2177L95.0724 18.2559C89.1908 13.6488 80.5066 17.845 80.0132 22.7117C79.5197 27.7946 83.0526 31.9043 92.0724 28.8329L88.9737 37.9174C77.0724 39.3666 72.4539 34.1971 71.7632 28.1624V24.7449C71.9408 23.1659 72.3158 21.6302 72.8289 20.2026C78.6908 4.23982 88.2039 7.83036 91.8158 7.52755L92.3487 5.75391L95.4671 7.65733ZM95.4671 30.4119L92.4868 37.4632H95.4671V30.4119ZM61.0658 37.2685C67.4408 35.8842 73.6974 27.4918 67.421 20.8082C69.8684 19.3807 71.3882 16.8067 71.7632 14.2544V11.6805C71.3289 9.02 69.4539 6.85702 65.9211 6.79214L61.0658 6.68399V12.6105H63.0789C65.2303 12.6105 64.9539 18.7101 62.2697 18.7101H61.0658V23.3822C63.9671 23.9878 62.9408 28.4003 61.0658 29.763V37.2685ZM71.7632 24.7449V28.1624C71.6447 27.0376 71.6447 25.8912 71.7632 24.7449ZM52.6579 6.48932L48.7303 14.8384L50.4868 14.687L45.75 37.4632H59.3092C59.9013 37.4632 60.4737 37.3983 61.0658 37.2685V29.763C60.7303 30.0225 60.3553 30.1739 59.9803 30.1739H55.1053L56.7237 23.3173H60.375C60.6316 23.3173 60.8684 23.3389 61.0658 23.3822V18.7101H57.6711L59.0329 12.6105H61.0658V6.68399L52.6579 6.48932Z" fill="#003399"/>
</svg>
